<mxfile host="app.diagrams.net" modified="2022-03-11T10:57:15.547Z" agent="5.0 (Macintosh; Intel Mac OS X 10_15_7) AppleWebKit/537.36 (KHTML, like Gecko) Chrome/97.0.4692.71 Safari/537.36" etag="Z1uyy9zmtQquzgr3P555" version="16.6.3" type="github">
  <diagram id="R2lEEEUBdFMjLlhIrx00" name="Page-1">
    <mxGraphModel dx="1483" dy="1994" grid="1" gridSize="10" guides="1" tooltips="1" connect="1" arrows="1" fold="1" page="1" pageScale="1" pageWidth="850" pageHeight="1100" math="0" shadow="0" extFonts="Permanent Marker^https://fonts.googleapis.com/css?family=Permanent+Marker">
      <root>
        <mxCell id="0" />
        <mxCell id="1" parent="0" />
        <mxCell id="4lwi2kXY1tBoEbOxJnWc-4" value="" style="rounded=0;whiteSpace=wrap;html=1;fontFamily=Courier New;" vertex="1" parent="1">
          <mxGeometry x="40" y="150" width="170" height="160" as="geometry" />
        </mxCell>
        <mxCell id="4lwi2kXY1tBoEbOxJnWc-2" value="&lt;font face=&quot;Courier New&quot;&gt;&lt;b&gt;Learners_Learners&lt;/b&gt;&lt;/font&gt;" style="rounded=0;whiteSpace=wrap;html=1;fillColor=#33FF33;" vertex="1" parent="1">
          <mxGeometry x="40" y="120" width="170" height="30" as="geometry" />
        </mxCell>
        <mxCell id="4lwi2kXY1tBoEbOxJnWc-3" value="&lt;b&gt;ID&lt;br&gt;&lt;br&gt;Full_NAME&lt;br&gt;&lt;br&gt;LType&lt;br&gt;&lt;br&gt;Company&lt;br&gt;&lt;br&gt;&lt;br&gt;&lt;br&gt;&lt;/b&gt;" style="text;html=1;align=left;verticalAlign=middle;resizable=0;points=[];autosize=1;strokeColor=none;fillColor=none;fontFamily=Courier New;" vertex="1" parent="1">
          <mxGeometry x="40" y="155" width="80" height="150" as="geometry" />
        </mxCell>
        <mxCell id="4lwi2kXY1tBoEbOxJnWc-6" value="" style="rounded=0;whiteSpace=wrap;html=1;fontFamily=Courier New;" vertex="1" parent="1">
          <mxGeometry x="400" y="50" width="170" height="160" as="geometry" />
        </mxCell>
        <mxCell id="4lwi2kXY1tBoEbOxJnWc-7" value="&lt;font face=&quot;Courier New&quot;&gt;&lt;b&gt;Coaches_SessionEvents&lt;/b&gt;&lt;/font&gt;" style="rounded=0;whiteSpace=wrap;html=1;" vertex="1" parent="1">
          <mxGeometry x="400" y="20" width="170" height="30" as="geometry" />
        </mxCell>
        <mxCell id="4lwi2kXY1tBoEbOxJnWc-8" value="&lt;b&gt;&lt;br&gt;Learner ID&lt;br&gt;&lt;br&gt;count(Session_Numbers)&lt;br&gt;&lt;br&gt;Session_Type&lt;br&gt;&lt;br&gt;&lt;/b&gt;" style="text;html=1;align=left;verticalAlign=middle;resizable=0;points=[];autosize=1;strokeColor=none;fillColor=none;fontFamily=Courier New;" vertex="1" parent="1">
          <mxGeometry x="400" y="50" width="170" height="100" as="geometry" />
        </mxCell>
        <mxCell id="4lwi2kXY1tBoEbOxJnWc-10" value="&lt;b&gt;What we need from this table ?&lt;br&gt;&lt;br&gt;* latest regular session count&lt;/b&gt;" style="text;html=1;align=center;verticalAlign=middle;resizable=0;points=[];autosize=1;strokeColor=none;fillColor=none;fontFamily=Courier New;" vertex="1" parent="1">
          <mxGeometry x="570" y="-10" width="230" height="50" as="geometry" />
        </mxCell>
        <mxCell id="4lwi2kXY1tBoEbOxJnWc-11" value="" style="rounded=0;whiteSpace=wrap;html=1;fontFamily=Courier New;" vertex="1" parent="1">
          <mxGeometry x="30" y="490" width="170" height="160" as="geometry" />
        </mxCell>
        <mxCell id="4lwi2kXY1tBoEbOxJnWc-12" value="&lt;font face=&quot;Courier New&quot;&gt;&lt;b&gt;Users_Enterprise&lt;/b&gt;&lt;/font&gt;" style="rounded=0;whiteSpace=wrap;html=1;fillColor=#33FF33;" vertex="1" parent="1">
          <mxGeometry x="30" y="460" width="170" height="30" as="geometry" />
        </mxCell>
        <mxCell id="4lwi2kXY1tBoEbOxJnWc-13" value="&lt;b&gt;ID&lt;br&gt;&lt;br&gt;Sessions Alloted&lt;br&gt;&lt;br&gt;Start Date&lt;br&gt;&lt;br&gt;End Date&lt;br&gt;&lt;br&gt;&lt;br&gt;&lt;br&gt;&lt;/b&gt;" style="text;html=1;align=left;verticalAlign=middle;resizable=0;points=[];autosize=1;strokeColor=none;fillColor=none;fontFamily=Courier New;" vertex="1" parent="1">
          <mxGeometry x="30" y="495" width="130" height="150" as="geometry" />
        </mxCell>
        <mxCell id="4lwi2kXY1tBoEbOxJnWc-14" value="" style="rounded=0;whiteSpace=wrap;html=1;fontFamily=Courier New;" vertex="1" parent="1">
          <mxGeometry x="160" y="-70" width="170" height="160" as="geometry" />
        </mxCell>
        <mxCell id="4lwi2kXY1tBoEbOxJnWc-15" value="&lt;font face=&quot;Courier New&quot;&gt;&lt;b&gt;Users_Customuser&lt;/b&gt;&lt;/font&gt;" style="rounded=0;whiteSpace=wrap;html=1;fillColor=#66FF66;" vertex="1" parent="1">
          <mxGeometry x="160" y="-100" width="170" height="30" as="geometry" />
        </mxCell>
        <mxCell id="4lwi2kXY1tBoEbOxJnWc-16" value="&lt;b&gt;&lt;br&gt;Last Login Date&lt;br&gt;&lt;br&gt;&lt;/b&gt;" style="text;html=1;align=left;verticalAlign=middle;resizable=0;points=[];autosize=1;strokeColor=none;fillColor=none;fontFamily=Courier New;" vertex="1" parent="1">
          <mxGeometry x="170" y="-50" width="120" height="50" as="geometry" />
        </mxCell>
        <mxCell id="4lwi2kXY1tBoEbOxJnWc-17" value="" style="rounded=0;whiteSpace=wrap;html=1;fontFamily=Courier New;" vertex="1" parent="1">
          <mxGeometry x="630" y="260" width="170" height="170" as="geometry" />
        </mxCell>
        <mxCell id="4lwi2kXY1tBoEbOxJnWc-18" value="&lt;font face=&quot;Courier New&quot;&gt;&lt;b&gt;Goals_candidategoals&lt;/b&gt;&lt;/font&gt;" style="rounded=0;whiteSpace=wrap;html=1;" vertex="1" parent="1">
          <mxGeometry x="630" y="240" width="170" height="30" as="geometry" />
        </mxCell>
        <mxCell id="4lwi2kXY1tBoEbOxJnWc-19" value="&lt;b&gt;ID&lt;br&gt;&lt;br&gt;Learner&#39;s ID&lt;br&gt;&lt;br&gt;Goals Added&lt;br&gt;&lt;br&gt;No. of Goals&lt;br&gt;&lt;br&gt;Goals Shared with &lt;br&gt;managers&lt;br&gt;&lt;br&gt;&lt;br&gt;&lt;br&gt;&lt;/b&gt;" style="text;html=1;align=left;verticalAlign=middle;resizable=0;points=[];autosize=1;strokeColor=none;fillColor=none;fontFamily=Courier New;" vertex="1" parent="1">
          <mxGeometry x="640" y="280" width="140" height="190" as="geometry" />
        </mxCell>
        <mxCell id="4lwi2kXY1tBoEbOxJnWc-20" value="" style="rounded=0;whiteSpace=wrap;html=1;fontFamily=Courier New;" vertex="1" parent="1">
          <mxGeometry x="880" y="270" width="170" height="160" as="geometry" />
        </mxCell>
        <mxCell id="4lwi2kXY1tBoEbOxJnWc-21" value="&lt;font face=&quot;Courier New&quot;&gt;&lt;b&gt;Goals_usercheckin&lt;/b&gt;&lt;/font&gt;" style="rounded=0;whiteSpace=wrap;html=1;" vertex="1" parent="1">
          <mxGeometry x="880" y="240" width="170" height="30" as="geometry" />
        </mxCell>
        <mxCell id="4lwi2kXY1tBoEbOxJnWc-22" value="&lt;b&gt;Goals Checkin&lt;br&gt;&lt;br&gt;Goal ID&lt;br&gt;&lt;/b&gt;" style="text;html=1;align=left;verticalAlign=middle;resizable=0;points=[];autosize=1;strokeColor=none;fillColor=none;fontFamily=Courier New;" vertex="1" parent="1">
          <mxGeometry x="890" y="290" width="110" height="50" as="geometry" />
        </mxCell>
        <mxCell id="4lwi2kXY1tBoEbOxJnWc-23" value="" style="rounded=0;whiteSpace=wrap;html=1;fontFamily=Courier New;" vertex="1" parent="1">
          <mxGeometry x="260" y="320" width="170" height="160" as="geometry" />
        </mxCell>
        <mxCell id="4lwi2kXY1tBoEbOxJnWc-24" value="&lt;font face=&quot;Courier New&quot;&gt;&lt;b&gt;Learners_enterprise&lt;/b&gt;&lt;/font&gt;" style="rounded=0;whiteSpace=wrap;html=1;fillColor=#00FF00;" vertex="1" parent="1">
          <mxGeometry x="260" y="290" width="170" height="30" as="geometry" />
        </mxCell>
        <mxCell id="4lwi2kXY1tBoEbOxJnWc-25" value="&lt;b&gt;Learner ID&lt;br&gt;&lt;br&gt;Enterprise ID&lt;br&gt;&lt;/b&gt;" style="text;html=1;align=left;verticalAlign=middle;resizable=0;points=[];autosize=1;strokeColor=none;fillColor=none;fontFamily=Courier New;" vertex="1" parent="1">
          <mxGeometry x="270" y="335" width="110" height="50" as="geometry" />
        </mxCell>
        <mxCell id="4lwi2kXY1tBoEbOxJnWc-29" value="" style="endArrow=none;html=1;rounded=0;fontFamily=Courier New;exitX=0.997;exitY=0.131;exitDx=0;exitDy=0;exitPerimeter=0;" edge="1" parent="1" source="4lwi2kXY1tBoEbOxJnWc-4">
          <mxGeometry width="50" height="50" relative="1" as="geometry">
            <mxPoint x="580" y="370" as="sourcePoint" />
            <mxPoint x="630" y="320" as="targetPoint" />
          </mxGeometry>
        </mxCell>
        <mxCell id="4lwi2kXY1tBoEbOxJnWc-30" value="" style="endArrow=none;html=1;rounded=0;fontFamily=Courier New;exitX=1.012;exitY=0.182;exitDx=0;exitDy=0;exitPerimeter=0;" edge="1" parent="1" source="4lwi2kXY1tBoEbOxJnWc-17" target="4lwi2kXY1tBoEbOxJnWc-20">
          <mxGeometry width="50" height="50" relative="1" as="geometry">
            <mxPoint x="580" y="370" as="sourcePoint" />
            <mxPoint x="630" y="320" as="targetPoint" />
          </mxGeometry>
        </mxCell>
        <mxCell id="4lwi2kXY1tBoEbOxJnWc-31" value="" style="endArrow=none;html=1;rounded=0;fontFamily=Courier New;entryX=-0.046;entryY=0.222;entryDx=0;entryDy=0;entryPerimeter=0;exitX=1;exitY=0.125;exitDx=0;exitDy=0;exitPerimeter=0;" edge="1" parent="1" source="4lwi2kXY1tBoEbOxJnWc-4" target="4lwi2kXY1tBoEbOxJnWc-8">
          <mxGeometry width="50" height="50" relative="1" as="geometry">
            <mxPoint x="580" y="330" as="sourcePoint" />
            <mxPoint x="630" y="280" as="targetPoint" />
          </mxGeometry>
        </mxCell>
        <mxCell id="4lwi2kXY1tBoEbOxJnWc-32" value="" style="endArrow=none;html=1;rounded=0;fontFamily=Courier New;" edge="1" parent="1" source="4lwi2kXY1tBoEbOxJnWc-3">
          <mxGeometry width="50" height="50" relative="1" as="geometry">
            <mxPoint x="580" y="330" as="sourcePoint" />
            <mxPoint x="150" y="-50" as="targetPoint" />
          </mxGeometry>
        </mxCell>
        <mxCell id="4lwi2kXY1tBoEbOxJnWc-33" value="" style="endArrow=none;html=1;rounded=0;fontFamily=Courier New;entryX=0.997;entryY=0.17;entryDx=0;entryDy=0;entryPerimeter=0;" edge="1" parent="1" target="4lwi2kXY1tBoEbOxJnWc-4">
          <mxGeometry width="50" height="50" relative="1" as="geometry">
            <mxPoint x="250" y="350" as="sourcePoint" />
            <mxPoint x="630" y="310" as="targetPoint" />
          </mxGeometry>
        </mxCell>
        <mxCell id="4lwi2kXY1tBoEbOxJnWc-34" value="" style="endArrow=none;html=1;rounded=0;fontFamily=Courier New;exitX=1.012;exitY=0.077;exitDx=0;exitDy=0;exitPerimeter=0;entryX=-0.018;entryY=0.381;entryDx=0;entryDy=0;entryPerimeter=0;" edge="1" parent="1" source="4lwi2kXY1tBoEbOxJnWc-11" target="4lwi2kXY1tBoEbOxJnWc-23">
          <mxGeometry width="50" height="50" relative="1" as="geometry">
            <mxPoint x="580" y="360" as="sourcePoint" />
            <mxPoint x="630" y="310" as="targetPoint" />
          </mxGeometry>
        </mxCell>
        <mxCell id="4lwi2kXY1tBoEbOxJnWc-35" value="&lt;b&gt;CONDITIONS :&lt;br&gt;&lt;br&gt;* count Refular Sessions&lt;br&gt;&amp;nbsp; &amp;nbsp; &amp;nbsp; &amp;nbsp; * On Track /Action Required - R&lt;br&gt;* Session_type : RS&lt;br&gt;&lt;br&gt;Stage : COmpleted&lt;br&gt;&lt;/b&gt;" style="text;html=1;align=center;verticalAlign=middle;resizable=0;points=[];autosize=1;strokeColor=none;fillColor=none;fontFamily=Courier New;" vertex="1" parent="1">
          <mxGeometry x="790" y="-30" width="300" height="100" as="geometry" />
        </mxCell>
      </root>
    </mxGraphModel>
  </diagram>
</mxfile>
